<?xml version="1.0" encoding="UTF-8" standalone="no"?>
<!-- Created with Inkscape (http://www.inkscape.org/) -->

<svg
   xmlns:dc="http://purl.org/dc/elements/1.1/"
   xmlns:cc="http://creativecommons.org/ns#"
   xmlns:rdf="http://www.w3.org/1999/02/22-rdf-syntax-ns#"
   xmlns:svg="http://www.w3.org/2000/svg"
   xmlns="http://www.w3.org/2000/svg"
   xmlns:sodipodi="http://sodipodi.sourceforge.net/DTD/sodipodi-0.dtd"
   xmlns:inkscape="http://www.inkscape.org/namespaces/inkscape"
   width="17.991671mm"
   height="26.458332mm"
   viewBox="0 0 17.99167 26.458332"
   version="1.1"
   id="svg1003"
   inkscape:version="0.92.4 (5da689c313, 2019-01-14)"
   sodipodi:docname="c_clef.svg">
  <defs
     id="defs997" />
  <sodipodi:namedview
     id="base"
     pagecolor="#ffffff"
     bordercolor="#666666"
     borderopacity="1.0"
     inkscape:pageopacity="0.0"
     inkscape:pageshadow="2"
     inkscape:zoom="1.4"
     inkscape:cx="35.228054"
     inkscape:cy="-16.815543"
     inkscape:document-units="mm"
     inkscape:current-layer="layer1"
     showgrid="false"
     fit-margin-top="0"
     fit-margin-left="0"
     fit-margin-right="0"
     fit-margin-bottom="0"
     inkscape:window-width="730"
     inkscape:window-height="696"
     inkscape:window-x="-7"
     inkscape:window-y="0"
     inkscape:window-maximized="0" />
  <metadata
     id="metadata1000">
    <rdf:RDF>
      <cc:Work
         rdf:about="">
        <dc:format>image/svg+xml</dc:format>
        <dc:type
           rdf:resource="http://purl.org/dc/dcmitype/StillImage" />
        <dc:title></dc:title>
      </cc:Work>
    </rdf:RDF>
  </metadata>
  <g
     inkscape:label="1. réteg"
     inkscape:groupmode="layer"
     id="layer1"
     transform="translate(-102.13327,-72.860119)">
    <path
       inkscape:connector-curvature="0"
       class="Clef"
       d="m 111.74944,84.150419 c -0.7912,0 -1.18694,0.646377 -1.18694,1.938867 0,1.292754 0.39574,1.938866 1.18694,1.938866 0.2594,0 0.63847,-0.137583 1.13744,-0.413279 0.48255,-0.275696 0.87961,-0.413544 1.19116,-0.413544 1.63507,0 3.05653,0.525198 4.26438,1.57533 1.18826,1.08585 1.78252,2.395008 1.78252,3.92721 0,4.40981 -2.33549,6.614583 -7.00645,6.614583 -1.11944,0 -2.07476,-0.360891 -2.86622,-1.082939 -0.77743,-0.724959 -1.16629,-1.612371 -1.16629,-2.662502 0,-0.567796 0.19853,-1.050132 0.59559,-1.447007 0.39705,-0.396875 0.8714,-0.595312 1.42278,-0.595312 0.55138,0 1.02494,0.198437 1.42067,0.595312 0.39573,0.396875 0.59347,0.879211 0.59347,1.447007 0,0.344487 -0.21495,0.680773 -0.64508,1.008856 -0.43015,0.308504 -0.64536,0.635264 -0.64536,0.979752 0,0.311415 0.12971,0.55245 0.38885,0.723371 0.23983,0.190235 0.54053,0.285221 0.90159,0.285221 1.43125,0 2.4051,-0.491332 2.92206,-1.47373 0.51697,-0.982662 0.77559,-2.446866 0.77559,-4.392612 0,-1.499129 -0.15432,-2.636044 -0.46323,-3.410479 -0.32823,-0.895879 -1.08635,-1.343554 -2.27487,-1.343554 -0.89602,0 -1.65441,0.387085 -2.2746,1.16152 -0.58738,0.79375 -0.8812,1.715823 -0.8812,2.76569 0,0.259027 -0.12045,0.388673 -0.36186,0.388673 -0.24114,0 -0.36184,-0.129646 -0.36184,-0.388673 0,-2.050521 -0.74038,-3.815821 -2.22113,-5.295635 v 12.480925 c 0,0.170656 -0.0868,0.256116 -0.26047,0.256116 h -0.54185 c -0.19033,0 -0.28535,-0.08546 -0.28535,-0.256116 V 73.1165 c 0,-0.17092 0.095,-0.256381 0.28535,-0.256381 h 0.54185 c 0.17364,0 0.26047,0.08546 0.26047,0.256381 v 12.480925 c 1.48075,-1.480079 2.22113,-3.245379 2.22113,-5.2959 0,-0.259027 0.1207,-0.388408 0.36184,-0.388408 0.24141,0 0.36186,0.129381 0.36186,0.388408 0,1.050132 0.29382,1.97194 0.8812,2.76569 0.62019,0.774435 1.37858,1.161785 2.2746,1.161785 1.18852,0 1.94664,-0.447939 2.27487,-1.343554 0.30891,-0.774435 0.46323,-1.91135 0.46323,-3.410743 0,-1.945746 -0.25862,-3.40995 -0.77559,-4.392348 -0.51696,-0.982663 -1.49081,-1.473994 -2.92206,-1.473994 -0.36106,0 -0.66176,0.09525 -0.90159,0.285485 -0.25914,0.154252 -0.38885,0.395288 -0.38885,0.723371 0,0.344488 0.21521,0.670983 0.64536,0.979752 0.43013,0.328084 0.64508,0.664104 0.64508,1.008856 0,0.567532 -0.19774,1.049867 -0.59347,1.446742 -0.39573,0.396875 -0.86929,0.595313 -1.42067,0.595313 -0.55138,0 -1.02573,-0.198438 -1.42278,-0.595313 -0.39706,-0.396875 -0.59559,-0.87921 -0.59559,-1.446742 0,-1.050131 0.38886,-1.937543 1.16629,-2.662502 0.79146,-0.722048 1.74678,-1.083204 2.86622,-1.083204 4.67096,0 7.00645,2.205038 7.00645,6.614584 0,1.532466 -0.59426,2.841625 -1.78252,3.927474 -1.20785,1.050132 -2.62931,1.575065 -4.26438,1.575065 -0.29489,0 -0.69194,-0.137848 -1.19116,-0.413279 -0.49897,-0.275696 -0.87804,-0.413544 -1.13744,-0.413544 m -6.20387,15.168033 H 102.394 c -0.17391,0 -0.26073,-0.08546 -0.26073,-0.256116 V 73.1165 c 0,-0.17092 0.0868,-0.256381 0.26073,-0.256381 h 3.15157 c 0.17365,0 0.26047,0.08546 0.26047,0.256381 v 25.945836 c 0,0.170656 -0.0868,0.256116 -0.26047,0.256116"
       id="path116"
       style="stroke-width:0.26464367" />
  </g>
</svg>
