<?xml version="1.0" encoding="UTF-8" standalone="no"?>
<!-- Created with Inkscape (http://www.inkscape.org/) -->

<svg
   xmlns:dc="http://purl.org/dc/elements/1.1/"
   xmlns:cc="http://creativecommons.org/ns#"
   xmlns:rdf="http://www.w3.org/1999/02/22-rdf-syntax-ns#"
   xmlns:svg="http://www.w3.org/2000/svg"
   xmlns="http://www.w3.org/2000/svg"
   xmlns:sodipodi="http://sodipodi.sourceforge.net/DTD/sodipodi-0.dtd"
   xmlns:inkscape="http://www.inkscape.org/namespaces/inkscape"
   width="10.31875mm"
   height="16.668751mm"
   viewBox="0 0 10.31875 16.668751"
   version="1.1"
   id="svg2135"
   inkscape:version="0.92.4 (5da689c313, 2019-01-14)"
   sodipodi:docname="double_flat.svg">
  <defs
     id="defs2129" />
  <sodipodi:namedview
     id="base"
     pagecolor="#ffffff"
     bordercolor="#666666"
     borderopacity="1.0"
     inkscape:pageopacity="0.0"
     inkscape:pageshadow="2"
     inkscape:zoom="0.35"
     inkscape:cx="-210.5155"
     inkscape:cy="139.96991"
     inkscape:document-units="mm"
     inkscape:current-layer="layer1"
     showgrid="false"
     fit-margin-top="0"
     fit-margin-left="0"
     fit-margin-right="0"
     fit-margin-bottom="0"
     inkscape:window-width="716"
     inkscape:window-height="405"
     inkscape:window-x="183"
     inkscape:window-y="32"
     inkscape:window-maximized="0" />
  <metadata
     id="metadata2132">
    <rdf:RDF>
      <cc:Work
         rdf:about="">
        <dc:format>image/svg+xml</dc:format>
        <dc:type
           rdf:resource="http://purl.org/dc/dcmitype/StillImage" />
        <dc:title></dc:title>
      </cc:Work>
    </rdf:RDF>
  </metadata>
  <g
     inkscape:label="1. réteg"
     inkscape:groupmode="layer"
     id="layer1"
     transform="translate(-38.689965,-169.19829)">
    <path
       inkscape:connector-curvature="0"
       class="Accidental"
       d="m 44.457438,180.44625 -0.05375,2.04893 c 0,0.72703 0.03443,1.30648 0.103534,1.73782 1.536333,-1.29693 2.3045,-2.52458 2.3045,-3.68296 0,-0.50062 -0.08685,-0.91523 -0.260557,-1.24437 -0.190387,-0.34561 -0.458094,-0.5184 -0.802856,-0.5184 -0.394277,0 -0.704616,0.15607 -0.930749,0.46876 -0.207069,0.3095 -0.32702,0.70633 -0.36012,1.19022 m -1.137819,4.74472 -0.07838,-2.79958 c -0.377861,0.45071 -0.860579,0.92638 -1.448157,1.42673 -0.603995,0.53646 -0.983444,0.88205 -1.137819,1.03681 -0.06885,0.0693 -0.154376,0.20757 -0.256586,0.41488 -0.173704,0.24314 -0.29498,0.38992 -0.364091,0.43956 -0.137958,0.10512 -0.27565,0.15767 -0.413608,0.15767 -0.171057,0 -0.309015,-0.0608 -0.413873,-0.18262 -0.121275,-0.12157 -0.181913,-0.28614 -0.181913,-0.49345 L 38.689965,169.4056 c 0.242816,-0.13829 0.484837,-0.20731 0.726065,-0.20731 0.241492,0 0.482189,0.069 0.722092,0.20731 l -0.206803,9.14941 c 0.499135,-0.60547 1.119813,-0.90834 1.861765,-0.90834 0.535148,0 0.991653,0.19086 1.369513,0.57229 l -0.177941,-8.81336 c 0.239903,-0.13829 0.480601,-0.20731 0.721827,-0.20731 0.241492,0 0.483514,0.069 0.72633,0.20731 l -0.182178,9.14941 c 0.706205,-0.60547 1.473048,-0.90834 2.300529,-0.90834 0.689523,0 1.275511,0.2681 1.75823,0.80454 0.466303,0.53646 0.699321,1.16687 0.699321,1.89126 0,0.4839 -0.146166,0.96911 -0.438499,1.45593 -0.311662,0.46452 -0.605583,0.81835 -0.881498,1.06175 -0.292333,0.2405 -0.740364,0.58609 -1.344623,1.03681 -0.48272,0.36206 -0.896327,0.68165 -1.241089,0.95797 -0.05243,0.0361 -0.155963,0.16589 -0.310338,0.38993 -0.121276,0.17147 -0.259233,0.31799 -0.413873,0.43956 -0.121276,0.12183 -0.267442,0.18262 -0.438499,0.18262 -0.154374,0 -0.300541,-0.0693 -0.438498,-0.20731 -0.121276,-0.12183 -0.182178,-0.27791 -0.182178,-0.46876 m -3.466946,-2.69579 c 0,0.58874 0.04395,1.18598 0.132397,1.79171 1.241089,-1.2112 1.861766,-2.4569 1.861766,-3.73685 0,-1.17536 -0.293656,-1.76277 -0.881234,-1.76277 -0.689523,0 -1.042758,0.5529 -1.059175,1.65898 l -0.05375,2.04893"
       id="path100"
       style="stroke-width:0.26511601" />
  </g>
</svg>
