<?xml version="1.0" encoding="UTF-8" standalone="no"?>
<!-- Created with Inkscape (http://www.inkscape.org/) -->

<svg
   xmlns:dc="http://purl.org/dc/elements/1.1/"
   xmlns:cc="http://creativecommons.org/ns#"
   xmlns:rdf="http://www.w3.org/1999/02/22-rdf-syntax-ns#"
   xmlns:svg="http://www.w3.org/2000/svg"
   xmlns="http://www.w3.org/2000/svg"
   xmlns:sodipodi="http://sodipodi.sourceforge.net/DTD/sodipodi-0.dtd"
   xmlns:inkscape="http://www.inkscape.org/namespaces/inkscape"
   width="67"
   height="77"
   viewBox="0 0 17.727083 20.372917"
   version="1.1"
   id="svg5177"
   inkscape:version="0.92.4 (5da689c313, 2019-01-14)"
   sodipodi:docname="f_clef.svg">
  <defs
     id="defs5171" />
  <sodipodi:namedview
     id="base"
     pagecolor="#ffffff"
     bordercolor="#666666"
     borderopacity="1.0"
     inkscape:pageopacity="0.0"
     inkscape:pageshadow="2"
     inkscape:zoom="1.979899"
     inkscape:cx="-85.752262"
     inkscape:cy="32.385313"
     inkscape:document-units="mm"
     inkscape:current-layer="layer1"
     showgrid="false"
     fit-margin-top="0"
     fit-margin-left="0"
     fit-margin-right="0"
     fit-margin-bottom="-100"
     inkscape:window-width="1366"
     inkscape:window-height="705"
     inkscape:window-x="-8"
     inkscape:window-y="-8"
     inkscape:window-maximized="1"
     units="px" />
  <metadata
     id="metadata5174">
    <rdf:RDF>
      <cc:Work
         rdf:about="">
        <dc:format>image/svg+xml</dc:format>
        <dc:type
           rdf:resource="http://purl.org/dc/dcmitype/StillImage" />
        <dc:title></dc:title>
      </cc:Work>
    </rdf:RDF>
  </metadata>
  <g
     inkscape:label="1. réteg"
     inkscape:groupmode="layer"
     id="layer1"
     transform="translate(0,-276.62708)">
    <path
       inkscape:connector-curvature="0"
       class="Clef"
       d="m 15.429761,281.19148 c -0.25734,-0.25752 -0.38602,-0.57285 -0.38602,-0.95125 0,-0.37576 0.12868,-0.69109 0.38602,-0.94598 0.25707,-0.25752 0.57519,-0.38628 0.95354,-0.38628 0.37836,0 0.69699,0.12876 0.95566,0.38628 0.25866,0.25489 0.38812,0.57022 0.38812,0.94598 0,0.3784 -0.12946,0.69373 -0.38812,0.95125 -0.25867,0.25752 -0.5773,0.38628 -0.95566,0.38628 -0.37835,0 -0.69647,-0.12876 -0.95354,-0.38628 m 0,6.57199 c -0.25734,-0.25489 -0.38602,-0.57285 -0.38602,-0.94861 0,-0.37578 0.12868,-0.69373 0.38602,-0.95125 0.25707,-0.25752 0.57519,-0.38628 0.95354,-0.38628 0.37836,0 0.69699,0.12876 0.95566,0.38628 0.25866,0.25752 0.38812,0.57547 0.38812,0.95125 0,0.37576 -0.12946,0.69372 -0.38812,0.94861 -0.25867,0.25489 -0.5773,0.38365 -0.95566,0.38365 -0.37835,0 -0.69647,-0.12876 -0.95354,-0.38365 m -8.95233,-11.13639 c 2.28704,0 4.16136,0.57022 5.62272,1.71592 1.41195,1.19825 2.11792,2.82483 2.11792,4.8771 0,1.38482 -0.2753,2.65139 -0.82566,3.79708 -0.51759,1.20089 -1.19741,2.25987 -2.03946,3.18221 -0.8616,0.94336 -1.9018,1.83153 -3.12114,2.66979 -1.18896,0.81986 -2.41095,1.55825 -3.66596,2.20993 C 2.003524,296.35882 0.593157,297 0.334493,297 0.111498,297 0,296.88963 0,296.66627 c 0,-0.0841 0.03435,-0.16029 0.103307,-0.22861 0.877978,-0.51504 1.952532,-1.1746 3.224184,-1.97607 0.82566,-0.5308 1.78898,-1.26657 2.8897,-2.2073 1.06794,-0.89081 1.89361,-1.72906 2.47699,-2.51475 0.60294,-0.76993 1.15329,-1.72906 1.65133,-2.87213 0.42934,-1.14833 0.64415,-2.27826 0.64415,-3.39242 0,-1.65811 -0.41297,-3.10337 -1.23863,-4.33578 -0.82566,-1.23241 -1.91686,-1.84731 -3.2736,-1.84731 -0.96332,0 -1.78898,0.30745 -2.47699,0.92234 -0.74032,0.63329 -1.27429,1.4295 -1.60191,2.386 0.32762,-0.13665 0.62881,-0.20497 0.90413,-0.20497 0.72104,0 1.34035,0.25752 1.85768,0.77256 0.51468,0.54657 0.77203,1.17197 0.77203,1.87095 0,0.73577 -0.24889,1.39797 -0.74719,1.9787 -0.53398,0.52817 -1.16148,0.79358 -1.88252,0.79358 -0.77336,0 -1.469553,-0.26541 -2.088868,-0.79358 -0.586288,-0.58073 -0.8793,-1.24293 -0.8793,-1.9787 0,-1.76321 0.602669,-3.26629 1.808007,-4.51446 1.186311,-1.26658 2.631291,-1.89724 4.334931,-1.89724"
       id="path62"
       style="stroke-width:0.26349264" />
  </g>
</svg>
