<?xml version="1.0" encoding="UTF-8" standalone="no"?>
<!-- Created with Inkscape (http://www.inkscape.org/) -->

<svg
   xmlns:dc="http://purl.org/dc/elements/1.1/"
   xmlns:cc="http://creativecommons.org/ns#"
   xmlns:rdf="http://www.w3.org/1999/02/22-rdf-syntax-ns#"
   xmlns:svg="http://www.w3.org/2000/svg"
   xmlns="http://www.w3.org/2000/svg"
   xmlns:sodipodi="http://sodipodi.sourceforge.net/DTD/sodipodi-0.dtd"
   xmlns:inkscape="http://www.inkscape.org/namespaces/inkscape"
   width="63.000004"
   height="179.00012"
   viewBox="0 0 16.668751 47.360451"
   version="1.1"
   id="svg4602"
   inkscape:version="0.92.4 (5da689c313, 2019-01-14)"
   sodipodi:docname="g_clef.svg">
  <defs
     id="defs4596" />
  <sodipodi:namedview
     id="base"
     pagecolor="#ffffff"
     bordercolor="#666666"
     borderopacity="1.0"
     inkscape:pageopacity="0.0"
     inkscape:pageshadow="2"
     inkscape:zoom="1.4"
     inkscape:cx="-68.966248"
     inkscape:cy="69.725199"
     inkscape:document-units="mm"
     inkscape:current-layer="layer1"
     showgrid="false"
     fit-margin-top="0"
     fit-margin-left="0"
     fit-margin-right="0"
     fit-margin-bottom="0"
     units="px"
     inkscape:window-width="1366"
     inkscape:window-height="705"
     inkscape:window-x="-8"
     inkscape:window-y="-8"
     inkscape:window-maximized="1" />
  <metadata
     id="metadata4599">
    <rdf:RDF>
      <cc:Work
         rdf:about="">
        <dc:format>image/svg+xml</dc:format>
        <dc:type
           rdf:resource="http://purl.org/dc/dcmitype/StillImage" />
        <dc:title></dc:title>
      </cc:Work>
    </rdf:RDF>
  </metadata>
  <g
     inkscape:label="1. réteg"
     inkscape:groupmode="layer"
     id="layer1"
     transform="translate(0,-265.77913)">
    <path
       inkscape:connector-curvature="0"
       class="Clef"
       d="m 9.6950729,305.78608 c 0,0 0.052572,0 0.1577078,0 0.069029,-0.0167 0.1285026,-0.0249 0.1784173,-0.0249 1.935776,0 3.526134,0.68219 4.770542,2.0466 1.244673,1.34479 1.86701,2.91494 1.86701,4.71019 0,2.22876 -0.923947,4.04203 -2.771311,5.43958 -0.484009,0.38101 -1.115905,0.69175 -1.895684,0.93196 0.08842,1.12154 0.132751,2.02726 0.132751,2.71768 0,0.13813 -0.01805,0.63951 -0.05417,1.50386 -0.06903,1.60463 -0.622072,2.99395 -1.659388,4.16772 -1.0009409,1.15728 -2.2456138,1.73581 -3.7334873,1.73581 -1.3994616,0 -2.5915656,-0.49157 -3.5760473,-1.47496 -0.9874027,-1.00249 -1.4809706,-2.21073 -1.4809706,-3.62471 0,-0.74319 0.2862114,-1.37422 0.8586332,-1.89336 0.5864944,-0.51649 1.2680378,-0.77474 2.0454278,-0.77474 0.6913673,0 1.270693,0.26779 1.7379769,0.80364 0.4840098,0.50005 0.7261477,1.12127 0.7261477,1.86446 0,0.67106 -0.2421379,1.24826 -0.7261477,1.73162 -0.4840108,0.48335 -1.0633355,0.72488 -1.7379769,0.72488 -0.2766523,0 -0.5434826,-0.0512 -0.8007539,-0.15325 0.7603982,1.12127 1.7714297,1.68205 3.0325646,1.68205 1.1918382,0 2.1680893,-0.48336 2.9287534,-1.45005 0.7965061,-0.99984 1.2292751,-2.16539 1.2985701,-3.49638 0.03318,-0.82856 0.04965,-1.30236 0.04965,-1.42114 0,-0.96671 -0.03452,-1.76053 -0.103545,-2.38201 -0.862882,0.13814 -1.6317766,0.20707 -2.306683,0.20707 -2.4033242,0 -4.4514072,-0.94999 -6.143983,-2.85024 C 0.829694,314.59077 0,312.31217 0,309.67192 c 0,-0.55255 0.0512373,-1.11305 0.15372494,-1.68204 0.10487389,-0.46664 0.23497006,-0.97624 0.38975768,-1.52879 0.0857567,-0.31207 0.31939821,-0.81318 0.70119038,-1.5036 0.1383266,-0.20734 0.293911,-0.46611 0.4667531,-0.77685 0.172842,-0.31075 0.2936451,-0.51729 0.3629408,-0.61937 0.1715145,-0.34522 0.5073747,-0.81212 1.0081114,-1.40019 0.1383267,-0.15485 0.2814319,-0.32666 0.4293166,-0.51597 0.1478847,-0.18904 0.2737332,-0.34442 0.3775444,-0.46585 0.1035453,-0.1217 0.1810726,-0.21688 0.2323139,-0.28608 0.051247,-0.0689 0.4404681,-0.52603 1.1676785,-1.37103 0.1715145,-0.1742 0.3395771,-0.3598 0.5041887,-0.55733 0.1646106,-0.19752 0.2986895,-0.3529 0.4022348,-0.46611 0.1038112,-0.11321 0.1818693,-0.19461 0.2344382,-0.24446 -0.6223364,-2.05482 -1.0120931,-3.69524 -1.1698018,-4.9215 -0.1189446,-0.9834 -0.1784174,-2.32978 -0.1784174,-4.03939 0,-1.50227 0.3456842,-2.90963 1.0370515,-4.22127 0.6722512,-1.36175 1.613721,-2.4748 2.8252071,-3.33916 0.069029,-0.0525 0.1547876,-0.0788 0.2572712,-0.0788 0.1215998,0 0.2086851,0.0263 0.2612541,0.0788 0.9319129,1.12128 1.7353219,2.57954 2.4102279,4.37479 0.691368,1.79525 1.037052,3.42745 1.037052,4.89685 0,1.65712 -0.396661,3.21056 -1.190512,4.66061 -0.898725,1.53542 -2.0576409,3.12359 -3.4764845,4.76401 0.362411,1.13797 0.8464208,2.92341 1.4520314,5.35686 m 2.2028711,12.04286 c 0.898723,-0.32851 1.599915,-0.88927 2.103307,-1.68177 0.55304,-0.75962 0.829694,-1.61443 0.829694,-2.56442 0,-1.22627 -0.41498,-2.3144 -1.244674,-3.26466 -0.849075,-0.98313 -1.930465,-1.53542 -3.243904,-1.65711 0.743937,3.643 1.262462,6.69899 1.555577,9.16796 M 1.8670104,311.84685 c 0,1.70961 0.6913674,3.21189 2.0741021,4.50736 1.4159225,1.25941 3.0062796,1.88911 4.7708064,1.88911 0.7245542,0 1.4326491,-0.0525 2.1240171,-0.15749 -0.276654,-2.62382 -0.821465,-5.76544 -1.634432,-9.42488 -0.9847465,0.10499 -1.7701021,0.4502 -2.3563306,1.03589 -0.5726877,0.60479 -0.8588991,1.28698 -0.8588991,2.04634 0,1.31191 0.7011914,2.37379 2.1033071,3.18591 0.1189456,0.12143 0.1784174,0.25135 0.1784174,0.38948 0,0.13788 -0.059476,0.26647 -0.1784174,0.38525 -0.1051388,0.12143 -0.234969,0.18215 -0.3900226,0.18215 -0.016457,0 -0.093985,-0.0164 -0.2323138,-0.0496 -0.9871368,-0.53584 -1.7478,-1.22626 -2.2814596,-2.07153 -0.5033919,-0.90041 -0.7550878,-1.80745 -0.7550878,-2.72164 0,-1.19047 0.3719691,-2.26906 1.1159054,-3.23549 0.777124,-0.96669 1.7878906,-1.58818 3.0325646,-1.86445 -0.4840109,-1.93313 -0.8809364,-3.4439 -1.1905116,-4.53203 -0.2766533,0.31208 -0.6093274,0.68751 -0.9977565,1.12684 -0.388695,0.43907 -0.617558,0.70289 -0.6865878,0.79118 -0.6223375,0.80921 -1.0981168,1.43891 -1.4270741,1.88912 -0.5891487,0.81185 -1.0219172,1.51075 -1.2985705,2.09618 -0.2931143,0.65728 -0.5517131,1.37395 -0.7757965,2.15027 -0.2238185,0.74293 -0.3358602,1.53675 -0.3358602,2.38201 m 8.6577566,-26.33171 c -1.296978,0.63819 -2.31624,1.55238 -3.057522,2.74259 -0.7603982,1.22626 -1.1405969,2.54639 -1.1405969,3.96064 0,1.2427 0.3109029,2.91785 0.9332393,5.02518 1.244674,-1.50254 2.1779133,-2.89161 2.8002506,-4.16772 0.655524,-1.3477 0.983154,-2.75505 0.983154,-4.22154 0,-1.10483 -0.172842,-2.21762 -0.518525,-3.33915"
       id="path58"
       style="stroke-width:0.26532027" />
  </g>
</svg>
