<?xml version="1.0" encoding="UTF-8" standalone="no"?>
<!-- Created with Inkscape (http://www.inkscape.org/) -->

<svg
   xmlns:dc="http://purl.org/dc/elements/1.1/"
   xmlns:cc="http://creativecommons.org/ns#"
   xmlns:rdf="http://www.w3.org/1999/02/22-rdf-syntax-ns#"
   xmlns:svg="http://www.w3.org/2000/svg"
   xmlns="http://www.w3.org/2000/svg"
   xmlns:sodipodi="http://sodipodi.sourceforge.net/DTD/sodipodi-0.dtd"
   xmlns:inkscape="http://www.inkscape.org/namespaces/inkscape"
   width="7.276042mm"
   height="19.8437mm"
   viewBox="0 0 7.276042 19.8437"
   version="1.1"
   id="svg6904"
   inkscape:version="0.92.4 (5da689c313, 2019-01-14)"
   sodipodi:docname="sharp.svg">
  <defs
     id="defs6898" />
  <sodipodi:namedview
     id="base"
     pagecolor="#ffffff"
     bordercolor="#666666"
     borderopacity="1.0"
     inkscape:pageopacity="0.0"
     inkscape:pageshadow="2"
     inkscape:zoom="1.979899"
     inkscape:cx="7.5421986"
     inkscape:cy="9.3984557"
     inkscape:document-units="mm"
     inkscape:current-layer="layer1"
     showgrid="false"
     fit-margin-top="0"
     fit-margin-left="0"
     fit-margin-right="0"
     fit-margin-bottom="0"
     inkscape:window-width="1366"
     inkscape:window-height="705"
     inkscape:window-x="-8"
     inkscape:window-y="-8"
     inkscape:window-maximized="1" />
  <metadata
     id="metadata6901">
    <rdf:RDF>
      <cc:Work
         rdf:about="">
        <dc:format>image/svg+xml</dc:format>
        <dc:type
           rdf:resource="http://purl.org/dc/dcmitype/StillImage" />
        <dc:title></dc:title>
      </cc:Work>
    </rdf:RDF>
  </metadata>
  <g
     inkscape:label="1. réteg"
     inkscape:groupmode="layer"
     id="layer1"
     transform="translate(-27.349809,-238.69722)">
    <path
       inkscape:connector-curvature="0"
       class="KeySig"
       d="m 33.049247,266.38767 c 0,0.32782 -0.162969,0.49186 -0.489172,0.49186 -0.325939,0 -0.488908,-0.16404 -0.488908,-0.49186 v -3.82429 l -2.191503,0.82683 v 4.18385 c 0,0.32782 -0.163761,0.49186 -0.491021,0.49186 -0.327524,0 -0.491285,-0.16404 -0.491285,-0.49186 v -3.84889 l -0.825412,0.31009 c -0.01637,0.0164 -0.08531,0.0249 -0.206288,0.0249 -0.137612,0 -0.258057,-0.0519 -0.361068,-0.15505 -0.103275,-0.10345 -0.154781,-0.2241 -0.154781,-0.36168 v -1.59994 c 0,-0.25929 0.111464,-0.42306 0.334127,-0.49212 l 1.213422,-0.41328 v -4.23757 l -0.825412,0.28522 c -0.01637,0.0167 -0.08531,0.0249 -0.206288,0.0249 -0.137612,0 -0.258057,-0.0516 -0.361068,-0.15505 -0.103275,-0.10345 -0.154781,-0.22384 -0.154781,-0.36169 v -1.60416 c 0,-0.23972 0.111464,-0.39397 0.334127,-0.46303 l 1.213422,-0.46699 v -4.15898 c 0,-0.32808 0.163761,-0.49186 0.491285,-0.49186 0.32726,0 0.491021,0.16378 0.491021,0.49186 v 3.82402 l 2.191503,-0.82682 v -4.18359 c 0,-0.32809 0.162969,-0.49213 0.488908,-0.49213 0.326203,0 0.489172,0.16404 0.489172,0.49213 v 3.84889 l 0.854203,-0.31009 c 0.01664,-0.0167 0.07581,-0.0249 0.177497,-0.0249 0.120972,0 0.250397,0.0511 0.38801,0.15293 0.104596,0.10477 0.156894,0.22595 0.156894,0.3638 v 1.59994 c 0,0.24262 -0.121237,0.4064 -0.363182,0.49186 l -1.213422,0.41354 v 4.2373 l 0.854203,-0.28522 c 0.01664,-0.0164 0.07581,-0.0246 0.177497,-0.0246 0.120972,0 0.250397,0.0521 0.38801,0.1569 0.104596,0.10213 0.156894,0.22198 0.156894,0.35983 v 1.60391 c 0,0.2233 -0.121237,0.37756 -0.363182,0.46302 l -1.213422,0.46725 v 4.15899 m -0.97808,-10.7487 -2.191503,0.77285 v 4.23757 l 2.191503,-0.77312 v -4.2373"
       id="path64"
       style="stroke-width:0.26435751" />
  </g>
</svg>
